<svg width="176px" height="28px" viewBox="0 0 176 28" aria-labelledby="official-card-logo-title" version="1.1" xmlns="http://www.w3.org/2000/svg" xmlns:xlink="http://www.w3.org/1999/xlink">
    <title id="official-card-logo-title">Official Card AMEX</title>
    <defs>
        <polygon id="path-1" points="0.0001 0 23.9331 0 23.9331 23.9997 0.0001 23.9997"></polygon>
        <polygon id="path-3" points="0.1363 0.4235 19 0.4235 19 3.2515 0.1363 3.2515"></polygon>
    </defs>
    <g id="Symbols" stroke="none" stroke-width="1" fill="none" fill-rule="evenodd">
        <g id="official-card-AMEX">
            <rect id="Rectangle-13" fill="#FFFFFF" opacity="0" x="0" y="0" width="176" height="28"></rect>
            <g id="Group-2" transform="translate(71.000000, 8.000000)" fill="#3B4349">
                <path d="M23.3062747,3.83437056 C21.0531247,3.83437056 19.3993573,5.92866686 19.3993573,8.10385204 C19.3993573,10.1851854 20.7323355,11.1651854 22.7063837,11.1651854 C23.4399792,11.1651854 24.2000107,10.986815 24.8919189,10.7711113 L25.118149,9.32755575 C24.4521682,9.64125945 23.7470421,9.83103723 23.0134466,9.83103723 C21.8695865,9.83103723 21.2020807,9.41829649 21.1156557,8.31696315 L21.1146389,8.31696315 C21.1115886,8.25162982 21.1049797,8.1894076 21.1049797,8.12200019 C21.1049797,8.10955575 21.1070132,8.09607426 21.1070132,8.08362982 C21.1070132,8.0774076 21.1059964,8.06962982 21.1059964,8.0634076 L21.1070132,8.0634076 C21.1146389,7.58325945 21.2168238,7.11037056 21.3967911,6.67429649 C21.7394407,5.78244464 22.2269793,5.16696315 23.2793305,5.16696315 C24.0261439,5.16696315 24.4130228,5.58644464 24.4130228,6.33570389 C24.4130228,6.49903723 24.4003133,6.64837056 24.3713355,6.81274093 L21.9280505,6.81274093 C21.7699436,7.36288908 21.742491,7.73103723 21.7384239,8.0634076 L25.9452868,8.0634076 C26.0515387,7.54696315 26.1201703,7.03000019 26.1201703,6.49903723 C26.1201703,4.71792612 25.0002043,3.83437056 23.3062747,3.83437056 L23.3062747,3.83437056 Z M20.2758083,3.99718538 L17.9555518,3.99718538 L15.4639705,6.54051871 L15.4355011,6.54051871 L16.6235904,0.800000191 L14.8366268,0.800000191 L12.7171814,11.000815 L14.4619491,11.000815 L15.2367237,7.28874093 L15.2631595,7.28874093 L17.0363967,11.000815 L19.0495903,11.000815 L16.9830166,7.19177797 L20.2758083,3.99718538 L20.2758083,3.99718538 Z M28.7830764,9.06933352 C28.7830764,8.79762982 28.823747,8.55237056 28.8634008,8.38903723 L29.5161636,5.32977797 L31.1165508,5.32977797 L31.3976862,3.99718538 L29.7967906,3.99718538 L30.2380663,1.91637056 L28.3173983,2.55622241 L28.0098271,3.99718538 L26.7180278,3.99718538 L26.4358757,5.32977797 L27.7307252,5.32977797 L27.2243765,7.69629649 C27.1043983,8.25318538 26.9961129,8.78362982 26.9961129,9.32755575 C26.9961129,10.6751854 27.8496867,11.1651854 29.063195,11.1651854 C29.3707663,11.1651854 29.7164662,11.0687409 30.0245458,11.000815 L30.3311003,9.58577797 C30.1028367,9.68170389 29.7850978,9.7491113 29.4632918,9.7491113 C29.063195,9.7491113 28.7830764,9.49088908 28.7830764,9.06933352 L28.7830764,9.06933352 Z M2.34618397,9.06933352 C2.34618397,8.79762982 2.38736293,8.55237056 2.42752512,8.38903723 L3.07977952,5.32977797 L4.68067514,5.32977797 L4.96028537,3.99718538 L3.35989812,3.99718538 L3.80015713,1.91637056 L1.88050585,2.55622241 L1.5729346,3.99718538 L0.279101841,3.99718538 L0,5.32977797 L1.29383276,5.32977797 L0.786467302,7.69629649 C0.666997479,8.25318538 0.559220447,8.78362982 0.559220447,9.32755575 C0.559220447,10.6751854 1.41330258,11.1651854 2.62731934,11.1651854 C2.93285705,11.1651854 3.2805905,11.0687409 3.58765336,11.000815 L3.89369946,9.58577797 C3.66696099,9.68170389 3.34668019,9.7491113 3.02690777,9.7491113 C2.62731934,9.7491113 2.34618397,9.49088908 2.34618397,9.06933352 L2.34618397,9.06933352 Z M9.34355691,7.92651871 C9.34355691,6.60792612 10.1427338,5.24785204 11.5697627,5.24785204 C12.0634018,5.24785204 12.5285715,5.37022241 12.8773218,5.60251871 L13.316564,4.10607426 C12.8366512,3.95777797 12.1971063,3.83437056 11.5301089,3.83437056 C9.06242154,3.83437056 7.47728576,5.69637056 7.47728576,8.14481501 C7.47728576,9.95444464 8.62419606,11.1651854 10.3959081,11.1651854 C10.9830896,11.1651854 11.5697627,11.1086669 12.1162736,10.8369632 L12.3165762,9.39496315 C11.8498813,9.62674093 11.302862,9.7491113 10.8636198,9.7491113 C9.63638507,9.7491113 9.34355691,8.83755575 9.34355691,7.92651871 L9.34355691,7.92651871 Z M8.13462398,0.976815006 L6.34816884,0.976815006 L5.97399952,2.71851871 L7.76096304,2.71851871 L8.13462398,0.976815006 L8.13462398,0.976815006 Z M5.69388092,3.99718538 L4.22770658,11.000815 L6.01416172,11.000815 L7.47982767,3.99718538 L5.69388092,3.99718538 L5.69388092,3.99718538 Z M46.091966,3.83955575 C45.2927892,3.83955575 44.5190314,3.98888908 43.7574749,4.26162982 L43.5053173,5.7171113 C44.2114602,5.37696315 44.9730168,5.17266686 45.7584673,5.17266686 C46.3847942,5.17266686 47.1305909,5.37696315 47.1305909,6.08370389 C47.1305909,6.28800019 47.1305909,6.49229649 47.0782275,6.68259278 L46.4513923,6.68259278 C44.7732225,6.68259278 42.2384288,6.85992612 42.2384288,9.17096315 C42.2384288,10.4631113 43.1189468,11.1703706 44.3583826,11.1703706 C45.3451525,11.1703706 45.9587699,10.721852 46.5713705,9.93370389 L46.597298,9.93370389 L46.4127552,11.0070372 L47.9190917,11.0070372 C48.0787238,9.68792612 48.7589392,6.93977797 48.7589392,6.00125945 C48.7589392,4.35651871 47.4640897,3.83955575 46.091966,3.83955575 L46.091966,3.83955575 Z M44.8530385,9.83622241 C44.3980365,9.83622241 43.9440511,9.59251871 43.9440511,9.10355575 C43.9440511,7.91977797 45.3837896,7.77096315 46.2510897,7.77096315 L46.8784333,7.77096315 C46.597298,8.89925945 46.1855084,9.83622241 44.8530385,9.83622241 L44.8530385,9.83622241 Z M40.1423689,3.83437056 C39.1820348,3.83437056 38.1825554,4.2554076 37.7285701,5.16696315 L37.700609,5.16696315 C37.6075751,4.32333352 36.7672193,3.83437056 35.9543161,3.83437056 C35.1129435,3.83437056 34.327493,4.21444464 33.8480885,4.93570389 L33.8211443,4.93570389 L33.9812847,3.99718538 L32.3148077,3.99718538 C32.2741372,4.21444464 32.220757,4.50118538 32.1678853,4.77288908 L30.9142147,11.000815 L32.7011782,11.000815 L33.4083379,7.66881501 C33.634568,6.72977797 33.9680667,5.24785204 35.1805583,5.24785204 C35.6355604,5.24785204 36.0214225,5.57451871 36.0214225,6.09096315 C36.0214225,6.51303723 35.887718,7.16585204 35.7941757,7.58637056 L35.0743065,11.000815 L36.8617784,11.000815 L37.5663961,7.66881501 C37.7951681,6.71681501 38.0996891,5.24785204 39.3421752,5.24785204 C39.7956522,5.24785204 40.1820227,5.57451871 40.1820227,6.09096315 C40.1820227,6.51303723 40.0488265,7.16585204 39.9557926,7.58637056 L39.2349066,11.000815 L41.0218701,11.000815 L41.7402142,7.65481501 C41.887645,7.08496315 42.0477854,6.37459278 42.0477854,5.75185204 C42.0477854,4.69044464 41.1672674,3.83437056 40.1423689,3.83437056 L40.1423689,3.83437056 Z M63.2666427,3.83437056 C61.0150179,3.83437056 59.3617589,5.92866686 59.3617589,8.10385204 C59.3617589,10.1851854 60.6952454,11.1651854 62.6677685,11.1651854 C63.4018724,11.1651854 64.1613954,10.986815 64.8543204,10.7711113 L65.0810589,9.32755575 C64.4145698,9.64125945 63.7079185,9.83103723 62.9748313,9.83103723 C61.8309713,9.83103723 61.1629571,9.41829649 61.079074,8.31696315 L61.0765321,8.31696315 C61.0734818,8.25162982 61.0673812,8.1894076 61.0673812,8.12200019 C61.0673812,8.10955575 61.0673812,8.09607426 61.0694148,8.08362982 C61.0694148,8.0774076 61.0673812,8.06962982 61.0673812,8.0634076 L61.0694148,8.0634076 C61.0765321,7.58325945 61.1817672,7.11037056 61.3591926,6.67429649 C61.7018422,5.78244464 62.188364,5.16696315 63.2407152,5.16696315 C63.9875287,5.16696315 64.3738992,5.58644464 64.3738992,6.33570389 C64.3738992,6.49903723 64.3622064,6.64837056 64.3342454,6.81274093 L61.8894353,6.81274093 C61.7318368,7.36288908 61.7018422,7.73103723 61.6998087,8.0634076 L65.9081968,8.0634076 C66.0144487,7.54696315 66.0815551,7.03000019 66.0815551,6.49903723 C66.0815551,4.71792612 64.9605723,3.83437056 63.2666427,3.83437056 L63.2666427,3.83437056 Z M68.97425,5.31629649 L68.9483225,5.31629649 L69.1877705,3.99718538 L67.4796062,3.99718538 C67.4282596,4.32333352 67.3733543,4.63600019 67.320991,4.93570389 L66.094773,11.000815 L67.8817366,11.000815 L68.5212814,7.86014834 C68.7490366,6.72977797 69.3611288,5.57451871 70.627509,5.57451871 C70.8537391,5.57451871 71.1079302,5.61496315 71.3077244,5.6834076 L71.6818937,3.90125945 C71.4683732,3.84681501 71.2279084,3.83437056 71.0006615,3.83437056 C70.1735236,3.83437056 69.2950392,4.5551113 68.97425,5.31629649 L68.97425,5.31629649 Z M57.2743414,9.06933352 C57.2743414,8.79762982 57.3139953,8.55237056 57.3536491,8.38903723 L58.007937,5.32977797 L59.6067991,5.32977797 L59.8869177,3.99718538 L58.2880556,3.99718538 L58.7272978,1.91637056 L56.8066298,2.55622241 L56.5010921,3.99718538 L55.2082761,3.99718538 L54.9281575,5.32977797 L56.2199567,5.32977797 L55.7146248,7.69629649 C55.5946466,8.25318538 55.4878863,8.78362982 55.4878863,9.32755575 C55.4878863,10.6751854 56.3409517,11.1651854 57.5544601,11.1651854 C57.8610145,11.1651854 58.208748,11.0687409 58.5147941,11.000815 L58.8213486,9.58577797 C58.5951185,9.68170389 58.2733125,9.7491113 57.9545569,9.7491113 C57.5544601,9.7491113 57.2743414,9.49088908 57.2743414,9.06933352 L57.2743414,9.06933352 Z M49.8087485,6.06400019 C49.8087485,7.81814834 52.1269714,7.92651871 52.1269714,9.05637056 C52.1269714,9.62674093 51.5006445,9.83103723 50.9007535,9.83103723 C50.2078285,9.83103723 49.7014798,9.57177797 49.1951311,9.28659278 L48.8067271,10.7431113 C49.461015,11.0552594 50.1798675,11.1651854 50.9007535,11.1651854 C52.435051,11.1651854 53.993751,10.6202224 53.993751,8.79762982 C53.993751,7.08496315 51.6740029,6.75777797 51.6740029,5.87370389 C51.6740029,5.31629649 52.340492,5.16696315 52.8737849,5.16696315 C53.3811504,5.16696315 53.8747895,5.31629649 54.0664496,5.42362982 L54.4523117,4.04903723 C54.1000028,3.95777797 53.4340221,3.83437056 52.7802426,3.83437056 C51.3664316,3.83437056 49.8087485,4.41925945 49.8087485,6.06400019 L49.8087485,6.06400019 Z M74.0519716,3.84266686 C73.2050068,3.84266686 72.5151322,4.54629649 72.5151322,5.41066686 C72.5151322,6.27400019 73.2050068,6.97607426 74.0519716,6.97607426 C74.8979197,6.97607426 75.5883027,6.27400019 75.5883027,5.41066686 C75.5883027,4.54629649 74.8979197,3.84266686 74.0519716,3.84266686 L74.0519716,3.84266686 Z M74.0560387,6.74325945 C73.34227,6.74325945 72.8079603,6.16096315 72.8079603,5.41066686 C72.8079603,4.66037056 73.34227,4.07807426 74.0560387,4.07807426 C74.7621816,4.07807426 75.2949662,4.66037056 75.2949662,5.41066686 C75.2949662,6.16096315 74.7621816,6.74325945 74.0560387,6.74325945 L74.0560387,6.74325945 Z M74.7708241,5.00777797 C74.7708241,4.66037056 74.568488,4.48977797 74.1541565,4.48977797 L73.4652985,4.48977797 L73.4652985,6.32637056 L73.7581267,6.32637056 L73.7581267,5.51488908 L74.0041837,5.51488908 L74.5079905,6.32637056 L74.818612,6.32637056 L74.3061627,5.51488908 C74.5883149,5.51488908 74.7708241,5.30177797 74.7708241,5.00777797 L74.7708241,5.00777797 Z M73.7581267,5.28000019 L73.7581267,4.72466686 L74.1063685,4.72466686 C74.29447,4.72466686 74.4779959,4.78585204 74.4779959,4.99377797 C74.4779959,5.23229649 74.3310735,5.28000019 74.1063685,5.28000019 L73.7581267,5.28000019 L73.7581267,5.28000019 Z" id="tm-logo"></path>
            </g>
            <g id="Group" transform="translate(152.000000, 2.000000)">
                <g id="Group-3">
                    <mask id="mask-2" fill="white">
                        <use xlink:href="#path-1"></use>
                    </mask>
                    <g id="Clip-2"></g>
                    <path d="M15.1221,16.7217 L14.6411,16.1277 L14.6411,16.7217 L13.0651,16.7217 L13.0651,15.7077 C12.8611,15.8017 12.6381,15.8497 12.4031,15.8497 L11.8461,15.8497 L11.8461,16.7217 L9.4691,16.7217 L9.0341,16.1507 L8.6011,16.7217 L4.6551,16.7217 L4.6551,12.9527 L8.6191,12.9527 L9.0521,13.5187 L9.4851,12.9527 L23.9331,12.9527 L23.9331,-0.0003 L0.0001,-0.0003 L0.0001,10.1217 L0.9011,8.0107 L2.4511,8.0107 L2.9541,9.1887 L2.9541,8.0107 L4.8931,8.0107 L5.1921,8.8647 L5.4891,8.0107 L14.1461,8.0107 L14.1461,8.4467 C14.4611,8.1687 14.8871,8.0107 15.3891,8.0107 L18.1451,8.0107 L18.6481,9.1887 L18.6481,8.0107 L20.2801,8.0107 L20.7111,8.6807 L20.7111,8.0107 L22.3421,8.0107 L22.3421,11.7797 L20.7211,11.7797 L20.2861,11.0977 L20.2861,11.7797 L17.9181,11.7797 L17.6841,11.2017 L17.0361,11.2017 L16.8051,11.7797 L15.3341,11.7797 C14.8531,11.7797 14.4481,11.6337 14.1461,11.3717 L14.1461,11.7797 L11.7171,11.7797 L11.2351,11.1847 L11.2351,11.7797 L2.2241,11.7797 L1.9901,11.2017 L1.3411,11.2017 L1.1101,11.7797 L0.0001,11.7797 L0.0001,23.9997 L23.9331,23.9997 L23.9331,16.4437 C23.6901,16.6207 23.3801,16.7217 23.0231,16.7217 L15.1221,16.7217 Z" id="Fill-1" fill="#006FCF" mask="url(#mask-2)"></path>
                </g>
                <g id="Group-6" transform="translate(5.000000, 13.000000)">
                    <mask id="mask-4" fill="white">
                        <use xlink:href="#path-3"></use>
                    </mask>
                    <g id="Clip-5"></g>
                    <path d="M0.1363,3.2515 L2.4343,3.2515 L2.4343,2.6175 L0.8513,2.6175 L0.8513,2.1365 L2.3953,2.1365 L2.3953,1.5185 L0.8513,1.5185 L0.8513,1.0575 L2.4343,1.0575 L2.4343,0.4235 L0.1363,0.4235 L0.1363,3.2515 Z M5.5993,3.2515 L4.4663,1.8255 L5.5923,0.4235 L4.7163,0.4235 L4.0523,1.2925 L3.3873,0.4235 L2.4893,0.4235 L3.6183,1.8415 L2.4923,3.2515 L3.3683,3.2515 L4.0323,2.3745 L4.7003,3.2515 L5.5993,3.2515 Z M7.5073,1.3805 C7.5073,1.5545 7.3933,1.6955 7.1743,1.6955 L6.3773,1.6955 L6.3773,1.0575 L7.1743,1.0575 C7.3933,1.0575 7.5073,1.2035 7.5073,1.3805 Z M8.2253,1.3765 C8.2253,0.8115 7.8503,0.4235 7.2483,0.4235 L5.6623,0.4235 L5.6623,3.2515 L6.3773,3.2515 L6.3773,2.3305 L7.2253,2.3305 C7.8433,2.3305 8.2253,1.9225 8.2253,1.3765 Z M10.0273,1.6355 L9.2493,1.6355 L9.2493,1.0575 L10.0273,1.0575 C10.2463,1.0575 10.3593,1.1905 10.3593,1.3485 C10.3593,1.5105 10.2463,1.6355 10.0273,1.6355 Z M11.2543,3.2515 L10.3403,2.2215 C10.8013,2.1245 11.0783,1.7765 11.0783,1.3365 C11.0783,0.7945 10.7033,0.4235 10.1013,0.4235 L8.5343,0.4235 L8.5343,3.2515 L9.2493,3.2515 L9.2493,2.2495 L9.5273,2.2495 L10.3713,3.2515 L11.2543,3.2515 Z M11.3673,3.2515 L13.6653,3.2515 L13.6653,2.6175 L12.0823,2.6175 L12.0823,2.1365 L13.6263,2.1365 L13.6263,1.5185 L12.0823,1.5185 L12.0823,1.0575 L13.6653,1.0575 L13.6653,0.4235 L11.3673,0.4235 L11.3673,3.2515 Z M14.6153,1.2885 C14.6153,1.1465 14.7203,1.0575 14.8693,1.0575 L16.0843,1.0575 L16.3663,0.4235 L14.8773,0.4235 C14.2633,0.4235 13.9003,0.7995 13.9003,1.3125 C13.9003,1.8455 14.2433,2.1525 14.7793,2.1525 L15.4483,2.1525 C15.5963,2.1525 15.7013,2.2455 15.7013,2.3865 C15.7013,2.5275 15.5963,2.6175 15.4483,2.6175 L13.9863,2.6175 L13.9863,3.2515 L15.4403,3.2515 C16.0533,3.2515 16.4163,2.8795 16.4163,2.3345 C16.4163,1.8215 16.0963,1.5225 15.5373,1.5225 L14.8693,1.5225 C14.7203,1.5225 14.6153,1.4295 14.6153,1.2885 Z M18.6673,1.0575 L18.9493,0.4235 L17.4603,0.4235 C16.8463,0.4235 16.4833,0.7995 16.4833,1.3125 C16.4833,1.8455 16.8263,2.1525 17.3623,2.1525 L18.0313,2.1525 C18.1793,2.1525 18.2843,2.2455 18.2843,2.3865 C18.2843,2.5275 18.1793,2.6175 18.0313,2.6175 L16.5693,2.6175 L16.5693,3.2515 L18.0233,3.2515 C18.6363,3.2515 19.0003,2.8795 19.0003,2.3345 C19.0003,1.8215 18.6793,1.5225 18.1203,1.5225 L17.4523,1.5225 C17.3033,1.5225 17.1983,1.4295 17.1983,1.2885 C17.1983,1.1465 17.3033,1.0575 17.4523,1.0575 L18.6673,1.0575 Z" id="Fill-4" fill="#006FCF" mask="url(#mask-4)"></path>
                </g>
                <path d="M2.0552,10.1172 L1.2732,10.1172 L1.6642,9.1472 L2.0552,10.1172 Z M2.5402,11.3082 L3.3482,11.3082 L2.1412,8.4812 L1.2112,8.4812 L0.0032,11.3082 L0.7932,11.3082 L1.0232,10.7312 L2.3052,10.7312 L2.5402,11.3082 Z M6.2412,11.3082 L6.9482,11.3082 L6.9482,8.4812 L5.8222,8.4812 L5.1932,10.2862 L4.5602,8.4812 L3.4232,8.4812 L3.4232,11.3082 L4.1302,11.3082 L4.1302,9.2162 L4.8722,11.3082 L5.4982,11.3082 L6.2412,9.2162 L6.2412,11.3082 Z M7.4252,11.3082 L9.7222,11.3082 L9.7222,10.6742 L8.1392,10.6742 L8.1392,10.1942 L9.6832,10.1942 L9.6832,9.5752 L8.1392,9.5752 L8.1392,9.1152 L9.7222,9.1152 L9.7222,8.4812 L7.4252,8.4812 L7.4252,11.3082 Z M11.6212,9.6932 L10.8442,9.6932 L10.8442,9.1152 L11.6212,9.1152 C11.8412,9.1152 11.9542,9.2482 11.9542,9.4062 C11.9542,9.5672 11.8412,9.6932 11.6212,9.6932 Z M12.8492,11.3082 L11.9342,10.2792 C12.3952,10.1812 12.6732,9.8342 12.6732,9.3942 C12.6732,8.8522 12.2982,8.4812 11.6962,8.4812 L10.1292,8.4812 L10.1292,11.3082 L10.8442,11.3082 L10.8442,10.3072 L11.1212,10.3072 L11.9662,11.3082 L12.8492,11.3082 Z M12.9622,11.3082 L13.6772,11.3082 L13.6772,9.9242 L13.6772,8.4812 L12.9622,8.4812 L12.9622,9.9202 L12.9622,11.3082 Z M15.4432,9.1352 L16.2012,9.1352 L16.2012,8.4812 L15.3882,8.4812 C14.5012,8.4812 14.0242,9.0712 14.0242,9.8742 L14.0242,9.9152 C14.0242,10.7842 14.5242,11.3082 15.3332,11.3082 L15.3922,11.3082 L15.6852,10.6742 L15.4542,10.6742 C15.0052,10.6742 14.7402,10.4002 14.7402,9.9152 L14.7402,9.8742 C14.7402,9.4502 14.9742,9.1352 15.4432,9.1352 Z M17.7492,10.1172 L16.9682,10.1172 L17.3592,9.1472 L17.7492,10.1172 Z M18.2342,11.3082 L19.0432,11.3082 L17.8352,8.4812 L16.9052,8.4812 L15.6982,11.3082 L16.4872,11.3082 L16.7182,10.7312 L17.9992,10.7312 L18.2342,11.3082 Z M21.8612,11.3082 L21.8612,8.4812 L21.1492,8.4812 L21.1492,10.2342 L20.0242,8.4812 L19.1172,8.4812 L19.1172,11.3082 L19.8322,11.3082 L19.8322,9.4912 L20.9932,11.3082 L21.8612,11.3082 Z" id="Fill-7" fill="#006FCF"></path>
            </g>
            <text id="OFFICIAL-CARD-OF" font-family="TMSans-Regular, TM Sans" font-size="8" font-weight="normal" fill="#69747C">
                <tspan x="0" y="19">OFFICIAL CARD OF</tspan>
            </text>
        </g>
    </g>
</svg>
